# xmcd CD database file
#
# Track frame offsets:
#	151
#	17427
#	35816
#	54667
#	76033
#	88780
#	103871
#	114392
#	124194
#	139872
#	167664
#
# Disc length: 2546 seconds
#
# Revision: 0
# Processed by: cddbd v1.5.2PL0 Copyright (c) Steve Scherf et al.
# Submitted via: CDex 1.70beta2
#
DISCID=8b09f00b
DTITLE=Putamayo - Jazz Around the World
DYEAR=2009
DGENRE=Jazz
TTITLE0=Chantal Chamberland - La Mer (Canada)
TTITLE1=Niuver - Quiereme Mucho (Cuba/France)
TTITLE2=Blick Bassy - Donalina (Cameroon)
TTITLE3=Kora Jazz Trio - Chan Chan (Guinea/Senegal)
TTITLE4=Heather Rigdon - Young and Naive (USA)
TTITLE5=Kad - J'aime Mon Lit (France)
TTITLE6=Sherele - Polka Dot Blues (Mexico)
TTITLE7=Kataraina Pipi - Te Reo o Papatuanuku (New Zealand)
TTITLE8=Keletigui Diabate w Habib Koite and Bamada - Summertime at Bamako (Mali)
TTITLE9=Billy Cobham and Asere - Destinos (USA/Panama/Cuba)
TTITLE10=Hugh Masakela with Malaika - Open the Door (South Africa)
EXTD=YEAR: 2009
EXTT0=
EXTT1=
EXTT2=
EXTT3=
EXTT4=
EXTT5=
EXTT6=
EXTT7=
EXTT8=
EXTT9=
EXTT10=
PLAYORDER=
